<?xml version="1.0" encoding="UTF-8"?>
<svg width="580" height="400" xmlns="http://www.w3.org/2000/svg" style="vector-effect: non-scaling-stroke;">
 <!-- Created with Method Draw - http://github.com/duopixel/Method-Draw/ -->

 <g>
  <title>background</title>
  <rect x="-1" y="-1" width="582" height="402" id="canvas_background" fill="none"/>
  <g id="canvasGrid" display="none">
  </g>
 </g>
 <g>
  <title>Layer 1</title>
  <!-- Created with Method Draw - http://github.com/duopixel/Method-Draw/ -->
  <g id="svg_35">
   <g id="svg_32" transform="matrix(0.604357, 0, 0, 0.604357, 27.4341, 145.106)">
    <title>background</title>
    <rect fill="none" id="svg_30" height="402" width="582" y="-1" x="-1"/>
    <g display="none" id="svg_29">
    </g>
   </g>
   <g id="svg_34" transform="matrix(0.604357, 0, 0, 0.604357, 27.4341, 145.106)">
    <title>Layer 1</title>
    <g id="svg_17">
     <g transform="matrix(0.86047, 0, 0, 0.91645, -128.291, -61.8544)" id="svg_26">
      <title>background</title>
      <g transform="translate(-53.8429, -5.4165) translate(0, -128.19) translate(40.3822, 216.66) translate(0, 81.2475) translate(226.909, -227.493) translate(41.6959, -1.15144) translate(-1172.85, -541.11) translate(-112.729, -30.5527) translate(1223.4, -242.075) translate(5.05538) translate(0, 625.9) translate(2.32431) translate(0, -1.09117) translate(0, -1.09117) translate(0, -1.09117) translate(0, -1.09117) translate(0, -1.09117) translate(0, -1.09117) translate(0, -1.09117) translate(0, -1.09117) translate(0, -1.09117) translate(0, -1.09117) translate(0, -1.09117) translate(-1.16216) translate(-1.16216) translate(-1.16216) translate(-1.16216) translate(-1.16216) translate(-1.16216) translate(-1.16216) translate(-1.16216) translate(-1.16216) translate(-1.16216) translate(-1.16216) translate(-1.16216) translate(-1.16216) translate(-1.16216) translate(-1.16216) translate(-1.16216) translate(-1.16216) translate(-1.16216) translate(-1.16216) translate(-1.16216) translate(-1.16216) translate(-1.16216) translate(-1.16216) translate(-1.16216) translate(-1.16216) translate(-1.16216) translate(-1.16216) translate(-1.16216) translate(-1.16216) translate(-1.16216) translate(-1.16216) translate(-1.16216) translate(-1.16216) translate(-1.16216) translate(-1.16216) translate(-1.16216) translate(-1.16216) translate(-1.16216) translate(-1.16216) translate(-1.16216) translate(-1.16216) translate(-1.16216) translate(-1.16216) translate(-1.16216) translate(-1.16216) translate(-1.16216) translate(-1.16216) translate(-1.16216) translate(-1.16216) translate(-1.16216) translate(-1.16216) translate(-1.16216) translate(-1.16216) translate(-1.16216) translate(-1.16216) translate(-1.16216) translate(-1.16216) translate(-1.16216) translate(-1.16216) translate(-1.16216) translate(-1.16216) translate(-1.16216) translate(-1.16216) translate(-1.16216) translate(-1.16216) translate(-1.16216) translate(-1.16216) translate(-1.16216) translate(-1.16216) translate(-1.16216) translate(-1.16216) translate(-1.16216) translate(-1.16216) translate(-1.16216) translate(-1.16216) translate(-1.16216) translate(-1.16216) translate(-1.16216) translate(-1.16216) translate(-1.16216) translate(-1.16216) translate(-1.16216) translate(-1.16216) translate(-1.16216) translate(-1.16216) translate(152.242, 81.8375) translate(-63.9186, -31.6438) translate(19.7567, 32.735) translate(-11.6216, -13.094) translate(204.45, -713.4) translate(0, 804.486)" display="none" id="svg_27">
     </g>
     </g>
     <g transform="matrix(0.86047, 0, 0, 0.91645, -128.291, -61.8544)" id="svg_20">
      <title>Layer 1</title>
      <path fill="#ff0000" stroke="#000" stroke-width="1.5" stroke-opacity="null" d="m411.551086,24.189426l64.497223,0l21.49939,24.50116l-21.49939,24.500736l-64.497223,0l21.498901,-24.500736l-21.498901,-24.50116z" id="svg_24"/>
      <rect stroke="#000" id="svg_23" height="11" width="497.999986" y="43.127495" x="421.191111" stroke-width="1.5" fill="#ffffff"/>
      <path transform="rotate(-90, 934.277, 47.6222)" id="svg_22" d="m934.272339,34.940159c8.438599,-28.875 41.5,0 0,37.124943c-41.5,-37.124943 -8.438599,-65.999942 0,-37.124943z" stroke-opacity="null" stroke-width="1.5" stroke="#000" fill="#ff0000"/>
      <text fill="#ffffff" stroke="#000" stroke-width="0" stroke-opacity="null" x="502.691097" y="-37.872505" id="svg_21" font-size="24" font-family="Georgia, Times, 'Times New Roman', serif" text-anchor="left" xml:space="preserve"/>
     </g>
     <g transform="matrix(0.86047, 0, 0, 0.91645, -128.291, -61.8544)" id="svg_18">
      <title>background</title>
      <rect x="357.311977" y="61.234079" width="582" height="402" id="svg_19" fill="none"/>
     </g>
    </g>
   </g>
  </g>
 </g>
</svg>
