<?xml version="1.0"?>
<svg width="580" height="300" xmlns="http://www.w3.org/2000/svg">
 <g>
  <title>background</title>
  <g display="none" overflow="visible" y="0" x="0" height="100%" width="100%" id="canvasGrid">
   <rect fill="url(#gridpattern)" stroke-width="0" y="0" x="0" height="100%" width="100%"/>
  </g>
 </g>
 <g>
  <title>Layer 1</title>
  <text stroke="#000" transform="matrix(7.334779403244909,0,0,8.274986907348364,-866.6865346875667,-1455.4836832069616) " xml:space="preserve" text-anchor="left" font-family="Georgia, Times, 'Times New Roman', serif" font-size="24" id="svg_1" y="198.407694" x="152.385962" stroke-width="0" fill="#000000">PID</text>
  <path transform="rotate(-90 535.5825195312501,224.43749999999997) " id="svg_6" d="m535.58252,220.3125c8.438538,-28.875 41.5,0 0,37.125c-41.5,-37.125 -8.438599,-66 0,-37.125z" stroke-opacity="null" stroke-width="1.5" stroke="#000" fill="#000000"/>
  <path transform="matrix(6.590884208679199,0,0,5.333333492279053,-360.61203145980835,-470.1666839122772) " id="svg_9" d="m227.817825,73.668549c-0.708984,-0.986511 -0.615997,-1.583771 1.107788,-7.11319c0.870453,-2.791718 1.582794,-5.156708 1.582794,-5.256073c0,-0.099365 -2.403564,-0.180664 -5.341217,-0.180664l-5.341217,0l0,-5.228546l0,-5.229095l5.383514,0c4.150848,0 5.337189,-0.157516 5.181091,-0.687653c-0.11145,-0.37883 -0.870789,-2.889496 -1.687531,-5.580826c-1.53949,-5.071579 -1.538818,-6.431641 0.002686,-6.853378c0.766724,-0.210022 12.709686,15.910858 13.120239,17.710724c-3.978302,6.424316 -8.733398,13.149384 -13.11319,19.079254c-0.231293,0 -0.633789,-0.296967 -0.894958,-0.660553z" stroke-opacity="null" stroke-width="1.5" stroke="#000" fill="#000000"/>
  <path transform="matrix(6.590884208679199,0,0,5.333333492279053,-360.61203145980835,-470.1666839122772) " id="svg_10" d="m215.817825,73.668549c-0.708984,-0.986511 -0.615997,-1.583771 1.107788,-7.11319c0.870453,-2.791718 1.582794,-5.156708 1.582794,-5.256073c0,-0.099365 -2.403564,-0.180664 -5.341217,-0.180664l-5.341217,0l0,-5.228546l0,-5.229095l5.383514,0c4.150848,0 5.337189,-0.157516 5.181091,-0.687653c-0.11145,-0.37883 -0.870789,-2.889496 -1.687531,-5.580826c-1.53949,-5.071579 -1.538818,-6.431641 0.002686,-6.853378c0.766724,-0.210022 12.709686,15.910858 13.120239,17.710724c-3.978302,6.424316 -8.733398,13.149384 -13.11319,19.079254c-0.231293,0 -0.633789,-0.296967 -0.894958,-0.660553z" stroke-opacity="null" stroke-width="1.5" stroke="#000" fill="#000000"/>
  <path transform="matrix(6.590884208679199,0,0,5.333333492279053,-360.61203145980835,-470.1666839122772) " id="svg_11" d="m203.817825,73.668549c-0.708984,-0.986511 -0.615997,-1.583771 1.107788,-7.11319c0.870453,-2.791718 1.582794,-5.156708 1.582794,-5.256073c0,-0.099365 -2.403564,-0.180664 -5.341217,-0.180664l-5.341217,0l0,-5.228546l0,-5.229095l5.383514,0c4.150848,0 5.337189,-0.157516 5.181091,-0.687653c-0.11145,-0.37883 -0.870789,-2.889496 -1.687531,-5.580826c-1.53949,-5.071579 -1.538818,-6.431641 0.002686,-6.853378c0.766724,-0.210022 12.709686,15.910858 13.120239,17.710724c-3.978302,6.424316 -8.733398,13.149384 -13.11319,19.079254c-0.231293,0 -0.633789,-0.296967 -0.894958,-0.660553z" stroke-opacity="null" stroke-width="1.5" stroke="#000" fill="#000000"/>
  <path transform="matrix(6.590884208679199,0,0,5.333333492279053,-360.61203145980835,-470.1666839122772) " id="svg_12" d="m192.817825,73.668549c-0.708984,-0.986511 -0.615997,-1.583771 1.107788,-7.11319c0.870453,-2.791718 1.582794,-5.156708 1.582794,-5.256073c0,-0.099365 -2.403564,-0.180664 -5.341217,-0.180664l-5.341217,0l0,-5.228546l0,-5.229095l5.383514,0c4.150848,0 5.337189,-0.157516 5.181091,-0.687653c-0.11145,-0.37883 -0.870789,-2.889496 -1.687531,-5.580826c-1.53949,-5.071579 -1.538818,-6.431641 0.002686,-6.853378c0.766724,-0.210022 12.709686,15.910858 13.120239,17.710724c-3.978302,6.424316 -8.733398,13.149384 -13.11319,19.079254c-0.231293,0 -0.633789,-0.296967 -0.894958,-0.660553z" stroke-opacity="null" stroke-width="1.5" stroke="#000" fill="#000000"/>
  <path transform="matrix(6.590884208679199,0,0,5.333333492279053,-360.61203145980835,-470.1666839122772) " id="svg_13" d="m180.817825,73.668549c-0.708984,-0.986511 -0.615997,-1.583771 1.107788,-7.11319c0.870453,-2.791718 1.582794,-5.156708 1.582794,-5.256073c0,-0.099365 -2.403564,-0.180664 -5.341217,-0.180664l-5.341217,0l0,-5.228546l0,-5.229095l5.383514,0c4.150848,0 5.337189,-0.157516 5.181091,-0.687653c-0.11145,-0.37883 -0.870789,-2.889496 -1.687531,-5.580826c-1.53949,-5.071579 -1.538818,-6.431641 0.002686,-6.853378c0.766724,-0.210022 12.709686,15.910858 13.120239,17.710724c-3.978302,6.424316 -8.733398,13.149384 -13.11319,19.079254c-0.231293,0 -0.633789,-0.296967 -0.894958,-0.660553z" stroke-opacity="null" stroke-width="1.5" stroke="#000" fill="#000000"/>
  <path transform="matrix(6.590884208679199,0,0,5.333333492279053,-360.61203145980835,-470.1666839122772) " id="svg_14" d="m168.817825,73.668549c-0.708984,-0.986511 -0.615997,-1.583771 1.107788,-7.11319c0.870453,-2.791718 1.582794,-5.156708 1.582794,-5.256073c0,-0.099365 -2.403564,-0.180664 -5.341217,-0.180664l-5.341217,0l0,-5.228546l0,-5.229095l5.383514,0c4.150848,0 5.337189,-0.157516 5.181091,-0.687653c-0.11145,-0.37883 -0.870789,-2.889496 -1.687531,-5.580826c-1.53949,-5.071579 -1.538818,-6.431641 0.002686,-6.853378c0.766724,-0.210022 12.709686,15.910858 13.120239,17.710724c-3.978302,6.424316 -8.733398,13.149384 -13.11319,19.079254c-0.231293,0 -0.633789,-0.296967 -0.894958,-0.660553z" stroke-opacity="null" stroke-width="1.5" stroke="#000" fill="#000000"/>
  <text stroke="#000" transform="matrix(6.590884208679199,0,0,5.333333492279053,-360.61203145980835,-470.1666839122772) " xml:space="preserve" text-anchor="left" font-family="Georgia, Times, 'Times New Roman', serif" font-size="24" id="svg_15" y="123.0625" x="59.948259" stroke-opacity="null" stroke-width="0" fill="#ff0000">CU</text>
  <rect stroke="#000" id="svg_18" height="11" width="497.999986" y="219.5" x="31.500014" stroke-width="1.5" fill="#000000"/>
  <path id="svg_25" d="m52.009796,224.747467l-27.734695,-23.5l18.265656,0l27.734344,23.5l-27.734344,23.5l-18.265656,0l27.734695,-23.5z" fill-opacity="null" stroke-opacity="null" stroke-width="1.5" stroke="#000" fill="#000000"/>
  <path id="svg_26" d="m83.009804,224.747467l-27.734703,-23.5l18.265663,0l27.734337,23.5l-27.734337,23.5l-18.265663,0l27.734703,-23.5z" fill-opacity="null" stroke-opacity="null" stroke-width="1.5" stroke="#000" fill="#000000"/>
  <path id="svg_27" d="m113.009804,224.747467l-27.734703,-23.5l18.265663,0l27.734337,23.5l-27.734337,23.5l-18.265663,0l27.734703,-23.5z" fill-opacity="null" stroke-opacity="null" stroke-width="1.5" stroke="#000" fill="#000000"/>
 </g>
</svg>