<?xml version="1.0" encoding="UTF-8"?>
<svg width="580" height="400" xmlns="http://www.w3.org/2000/svg">
 <!-- Created with Method Draw - http://github.com/duopixel/Method-Draw/ -->

 <g>
  <title>background</title>
  <rect fill="none" id="canvas_background" height="402" width="582" y="-1" x="-1"/>
  <g display="none" overflow="visible" y="0" x="0" height="100%" width="100%" id="canvasGrid">
   <rect fill="url(#gridpattern)" stroke-width="0" y="0" x="0" height="100%" width="100%"/>
  </g>
 </g>
 <g>
  <title>Layer 1</title>
  <g id="svg_36">
   <g transform="matrix(0.86047, 0, 0, 0.91645, -128.291, -61.8544)" id="svg_33">
    <title>background</title>
    <g transform="translate(0, -1.09117) translate(0, -1.09117) translate(0, -1.09117) translate(0, -1.09117) translate(0, -1.09117) translate(0, -1.09117) translate(0, -1.09117) translate(0, -1.09117) translate(0, -1.09117) translate(0, -1.09117) translate(0, -1.09117) translate(-1.16216) translate(-1.16216) translate(-1.16216) translate(-1.16216) translate(-1.16216) translate(-1.16216) translate(-1.16216) translate(-1.16216) translate(-1.16216) translate(-1.16216) translate(-1.16216) translate(-1.16216) translate(-1.16216) translate(-1.16216) translate(-1.16216) translate(-1.16216) translate(-1.16216) translate(-1.16216) translate(-1.16216) translate(-1.16216) translate(-1.16216) translate(-1.16216) translate(-1.16216) translate(-1.16216) translate(-1.16216) translate(-1.16216) translate(-1.16216) translate(-1.16216) translate(-1.16216) translate(-1.16216) translate(-1.16216) translate(-1.16216) translate(-1.16216) translate(-1.16216) translate(-1.16216) translate(-1.16216) translate(-1.16216) translate(-1.16216) translate(-1.16216) translate(-1.16216) translate(-1.16216) translate(-1.16216) translate(-1.16216) translate(-1.16216) translate(-1.16216) translate(-1.16216) translate(-1.16216) translate(-1.16216) translate(-1.16216) translate(-1.16216) translate(-1.16216) translate(-1.16216) translate(-1.16216) translate(-1.16216) translate(-1.16216) translate(-1.16216) translate(-1.16216) translate(-1.16216) translate(-1.16216) translate(-1.16216) translate(-1.16216) translate(-1.16216) translate(-1.16216) translate(-1.16216) translate(-1.16216) translate(-1.16216) translate(-1.16216) translate(-1.16216) translate(-1.16216) translate(-1.16216) translate(-1.16216) translate(-1.16216) translate(-1.16216) translate(-1.16216) translate(-1.16216) translate(-1.16216) translate(-1.16216) translate(-1.16216) translate(-1.16216) translate(-1.16216) translate(-1.16216) translate(-1.16216) translate(-1.16216) translate(-1.16216) translate(-1.16216) translate(152.242, 81.8375) translate(-63.9186, -31.6438) translate(19.7567, 32.735) translate(-11.6216, -13.094) translate(204.45, -713.4) translate(0, 804.486)" display="none" id="svg_30">
     <rect fill="url(#gridpattern)" stroke-width="0" y="0" x="0" height="100%" width="100%" id="svg_31"/>
    </g>
   </g>
   <g transform="matrix(0.86047, 0, 0, 0.91645, -128.291, -61.8544)" id="svg_34">
    <title>Layer 1</title>
    <text stroke="#000" transform="matrix(7.33478, 0, 0, 8.27499, -866.687, -1455.48)" xml:space="preserve" text-anchor="left" font-family="Georgia, Times, 'Times New Roman', serif" font-size="24" id="svg_29" y="210.482366" x="153.221123" stroke-width="0" fill="#ffffff">cuPID</text>
    <path fill="#ff0000" stroke="#000" stroke-width="1.5" stroke-opacity="null" d="m223.985809,349.479706l64.497162,0l21.499451,24.50116l-21.499451,24.500732l-64.497162,0l21.498932,-24.500732l-21.498932,-24.50116z" id="svg_28"/>
    <rect stroke="#000" id="svg_27" height="11" width="497.999986" y="368.417787" x="233.625759" stroke-width="1.5" fill="#ffffff"/>
    <path transform="rotate(-90, 746.707, 372.912)" id="svg_26" d="m746.707031,360.230438c8.438538,-28.875 41.5,0 0,37.124939c-41.5,-37.124939 -8.438599,-65.999939 0,-37.124939z" stroke-opacity="null" stroke-width="1.5" stroke="#000" fill="#ff0000"/>
    <text fill="#ffffff" stroke="#000" stroke-width="0" stroke-opacity="null" x="315.125745" y="287.417787" id="svg_19" font-size="24" font-family="Georgia, Times, 'Times New Roman', serif" text-anchor="left" xml:space="preserve"/>
   </g>
   <g transform="matrix(0.86047, 0, 0, 0.91645, -128.291, -61.8544)" id="svg_35">
    <title>background</title>
    <rect x="7.125745" y="62.917787" width="582" height="402" id="svg_18" fill="none"/>
   </g>
  </g>
 </g>
</svg>