<?xml version="1.0" encoding="UTF-8"?>
<svg width="580" height="300" xmlns="http://www.w3.org/2000/svg">
 <g>
  <title>background</title>
  <g id="canvasGrid" display="none">
   <rect id="svg_2" width="100%" height="100%" x="0" y="0" stroke-width="0" fill="url(#gridpattern)"/>
  </g>
 </g>

 <g>
  <title>Layer 1</title>
  <text fill="#000000" stroke-width="0" x="122.391876" y="199.737001" id="svg_1" font-size="24" font-family="Georgia, Times, 'Times New Roman', serif" text-anchor="left" xml:space="preserve" transform="matrix(7.33478, 0, 0, 8.27499, -866.687, -1455.48)" stroke="#000">cuPID</text>
  <path id="svg_20" d="m21.860861,200.561752l64.497538,0l21.499489,24.501114l-21.499489,24.500732l-64.497538,0l21.499205,-24.500732l-21.499205,-24.501114z" stroke-opacity="null" stroke-width="1.5" stroke="#000" fill="#bf0000"/>
  <rect fill="#000000" stroke-width="1.5" x="31.500014" y="219.5" width="497.999986" height="11" id="svg_18" stroke="#000"/>
  <path fill="#bf0000" stroke="#000" stroke-width="1.5" stroke-opacity="null" d="m544.58252,211.3125c8.438538,-28.875 41.5,0 0,37.125c-41.5,-37.125 -8.438599,-66 0,-37.125z" id="svg_6" transform="rotate(-90, 544.582, 223.994)"/>
  <path fill="#000000" stroke="#000" stroke-width="1.5" stroke-opacity="null" d="m1140.908936,-77.267746c-4.672852,-5.261398 -4.060059,-8.446777 7.30127,-37.937019c5.737061,-14.889153 10.432007,-27.502434 10.432007,-28.032372c0,-0.529968 -15.841675,-0.963562 -35.203369,-0.963562l-35.203369,0l0,-27.885559l0,-27.888519l35.482178,0c27.357788,0 35.176758,-0.840118 34.147949,-3.667465c-0.734497,-2.020432 -5.739258,-15.410675 -11.122314,-29.764435c-10.146606,-27.048431 -10.142212,-34.302063 0.0177,-36.551361c5.053345,-1.120087 83.768066,84.857925 86.473999,94.45723c-26.220581,34.262985 -57.560791,70.130028 -86.42749,101.756012c-1.524414,0 -4.177246,-1.583862 -5.89856,-3.522949z" id="svg_9"/>
  <path fill="#000000" stroke="#000" stroke-width="1.5" stroke-opacity="null" d="m1061.818237,-77.267746c-4.672852,-5.261398 -4.059937,-8.446777 7.301392,-37.937019c5.736938,-14.889153 10.432007,-27.502434 10.432007,-28.032372c0,-0.529968 -15.841675,-0.963562 -35.203369,-0.963562l-35.203369,0l0,-27.885559l0,-27.888519l35.482178,0c27.357666,0 35.176758,-0.840118 34.147949,-3.667465c-0.734619,-2.020432 -5.739258,-15.410675 -11.122314,-29.764435c-10.146606,-27.048431 -10.142212,-34.302063 0.0177,-36.551361c5.053345,-1.120087 83.768066,84.857925 86.473999,94.45723c-26.220581,34.262985 -57.560913,70.130028 -86.427612,101.756012c-1.524414,0 -4.177246,-1.583862 -5.89856,-3.522949z" id="svg_10"/>
  <path fill="#000000" stroke="#000" stroke-width="1.5" stroke-opacity="null" d="m982.727661,-77.267746c-4.672852,-5.261398 -4.059998,-8.446777 7.30127,-37.937019c5.737061,-14.889153 10.432068,-27.502434 10.432068,-28.032372c0,-0.529968 -15.841614,-0.963562 -35.203369,-0.963562l-35.203369,0l0,-27.885559l0,-27.888519l35.482117,0c27.357788,0 35.176819,-0.840118 34.14801,-3.667465c-0.734558,-2.020432 -5.739258,-15.410675 -11.122314,-29.764435c-10.146606,-27.048431 -10.142212,-34.302063 0.0177,-36.551361c5.053345,-1.120087 83.768005,84.857925 86.473938,94.45723c-26.220459,34.262985 -57.560791,70.130028 -86.42749,101.756012c-1.524414,0 -4.177246,-1.583862 -5.89856,-3.522949z" id="svg_11"/>
  <path fill="#000000" stroke="#000" stroke-width="1.5" stroke-opacity="null" d="m910.227905,-77.267746c-4.672791,-5.261398 -4.059937,-8.446777 7.301331,-37.937019c5.737061,-14.889153 10.432007,-27.502434 10.432007,-28.032372c0,-0.529968 -15.841614,-0.963562 -35.203369,-0.963562l-35.203308,0l0,-27.885559l0,-27.888519l35.482117,0c27.357788,0 35.176819,-0.840118 34.147949,-3.667465c-0.734558,-2.020432 -5.739258,-15.410675 -11.122314,-29.764435c-10.146606,-27.048431 -10.142151,-34.302063 0.0177,-36.551361c5.053406,-1.120087 83.768066,84.857925 86.473999,94.45723c-26.22052,34.262985 -57.560791,70.130028 -86.42749,101.756012c-1.524475,0 -4.177246,-1.583862 -5.898621,-3.522949z" id="svg_12"/>
  <path fill="#000000" stroke="#000" stroke-width="1.5" stroke-opacity="null" d="m831.137329,-77.267746c-4.672852,-5.261398 -4.059998,-8.446777 7.30127,-37.937019c5.737061,-14.889153 10.432007,-27.502434 10.432007,-28.032372c0,-0.529968 -15.841614,-0.963562 -35.203308,-0.963562l-35.203369,0l0,-27.885559l0,-27.888519l35.482117,0c27.357788,0 35.176819,-0.840118 34.14801,-3.667465c-0.734558,-2.020432 -5.739258,-15.410675 -11.122314,-29.764435c-10.146606,-27.048431 -10.142212,-34.302063 0.0177,-36.551361c5.053345,-1.120087 83.768066,84.857925 86.473938,94.45723c-26.22052,34.262985 -57.560791,70.130028 -86.42749,101.756012c-1.524414,0 -4.177246,-1.583862 -5.89856,-3.522949z" id="svg_13"/>
  <path fill="#000000" stroke="#000" stroke-width="1.5" stroke-opacity="null" d="m752.046692,-77.267746c-4.672791,-5.261398 -4.059937,-8.446777 7.301331,-37.937019c5.737061,-14.889153 10.432007,-27.502434 10.432007,-28.032372c0,-0.529968 -15.841614,-0.963562 -35.203369,-0.963562l-35.203308,0l0,-27.885559l0,-27.888519l35.482117,0c27.357727,0 35.176758,-0.840118 34.147949,-3.667465c-0.734558,-2.020432 -5.739258,-15.410675 -11.122314,-29.764435c-10.146606,-27.048431 -10.142151,-34.302063 0.0177,-36.551361c5.053406,-1.120087 83.768066,84.857925 86.473999,94.45723c-26.22052,34.262985 -57.560852,70.130028 -86.427551,101.756012c-1.524414,0 -4.177185,-1.583862 -5.89856,-3.522949z" id="svg_14"/>
  <text xml:space="preserve" text-anchor="left" font-family="Georgia, Times, 'Times New Roman', serif" font-size="24" id="svg_8" y="138.5" x="113" fill-opacity="null" stroke-opacity="null" stroke-width="0" stroke="#000" fill="#ff0000"/>
 </g>
 <g>
  <title>background</title>
  <rect fill="none" id="canvas_background" height="402" width="582" y="-1" x="-1"/>
 </g>
</svg>